<svg width="1440" height="160" viewBox="0 0 1440 160" fill="none" xmlns="http://www.w3.org/2000/svg">
<g clip-path="url(#clip0_1_537)">
<path d="M9.57151e-05 7.28074C247.473 -24.8279 407.856 56.8763 688.958 104.152C970.06 151.427 1225.29 126.465 1440 92.1787C1440 113.403 1440 159.662 1440 159.662H9.57151e-05C9.57151e-05 159.662 -0.000119644 60.6143 9.57151e-05 7.28074Z" fill="#334F70"/>
<path d="M0.000128858 30.1377C243.162 9.4577 400.958 80.75 688.958 129.185C976.958 177.621 1238.23 127.008 1440 91.0901C1440 112.315 1440 159.662 1440 159.662L0 160C0 160 -8.65016e-05 83.4713 0.000128858 30.1377Z" fill="#486A94"/>
</g>
<defs>
<clipPath id="clip0_1_537">
<rect width="1440" height="160" fill="white"/>
</clipPath>
</defs>
</svg>
