<svg width="430" height="80" viewBox="0 0 430 80" fill="none" xmlns="http://www.w3.org/2000/svg">
<g clip-path="url(#clip0_1_544)">
<path d="M2.85816e-05 3.63334C73.8982 -12.39 121.79 28.3833 205.731 51.9752C289.671 75.5672 365.886 63.1102 430 46.0004C430 56.5921 430 79.6768 430 79.6768H2.85816e-05C2.85816e-05 79.6768 -3.5727e-05 30.2487 2.85816e-05 3.63334Z" fill="#334F70"/>
<path d="M3.84783e-05 9.87907C72.6109 -1.252 119.731 37.1213 205.731 63.1917C291.731 89.2622 369.749 62.02 430 42.6868C430 54.111 430 79.5956 430 79.5956L0 79.7777C0 79.7777 -2.58303e-05 38.586 3.84783e-05 9.87907Z" fill="#486A94"/>
</g>
<defs>
<clipPath id="clip0_1_544">
<rect width="430" height="80" fill="white"/>
</clipPath>
</defs>
</svg>
